# 3ds Max Wavefront OBJ Exporter v0.97b - (c)2007 guruware
# 创建的文件:23.11.2013 15:44:07

#
# object default001
#

v  0.100000 -0.100000 -0.100000
v  -0.100000 -0.100000 -0.100000
v  -0.100000 0.100000 -0.100000
v  0.100000 0.100000 -0.100000
v  -0.100000 0.100000 0.100000
v  -0.100000 -0.100000 0.100000
v  0.100000 -0.100000 0.100000
v  0.100000 0.100000 0.100000
# 8 vertices

vn 0.000000 0.000000 -1.000000
vn 0.000000 0.000000 1.000000
vn 1.000000 -0.000001 0.000001
vn 1.000000 0.000000 0.000000
vn -0.000000 -1.000000 0.000000
vn 0.000000 -1.000000 -0.000000
vn -1.000000 0.000000 0.000000
vn 0.000000 1.000000 0.000000
vn 0.000001 1.000000 0.000001
# 9 vertex normals

vt 0.288517 0.505365 0.000000
vt 0.032473 0.503820 0.000000
vt 0.033110 0.752553 0.000000
vt 0.287881 0.753337 0.000000
vt 0.330501 0.747807 0.000000
vt 0.330501 0.509033 0.000000
vt 0.584177 0.509033 0.000000
vt 0.584178 0.747807 0.000000
vt 0.442499 0.969336 0.000000
vt 0.236477 0.969336 0.000000
vt 0.236477 0.791352 0.000000
vt 0.442499 0.791352 0.000000
vt 0.030455 0.969336 0.000000
vt 0.030455 0.791352 0.000000
vt 0.652315 0.476606 0.000000
vt 0.343509 0.476606 0.000000
vt 0.343509 0.178653 0.000000
vt 0.652315 0.178653 0.000000
vt 0.035932 0.180467 0.000000
vt 0.035932 0.478419 0.000000
# 20 texture coords

g default001
f 1/1/1 2/2/1 3/3/1
f 3/3/1 4/4/1 1/1/1
f 5/5/2 6/6/2 7/7/2
f 7/7/2 8/8/2 5/5/2
f 8/9/3 7/10/3 1/11/3
f 1/11/4 4/12/4 8/9/4
f 7/10/5 6/13/5 2/14/5
f 2/14/6 1/11/6 7/10/6
f 6/15/7 5/16/7 3/17/7
f 3/17/7 2/18/7 6/15/7
f 4/19/8 3/17/8 5/16/8
f 5/16/9 8/20/9 4/19/9
# 12 faces
